HIERARCHY
ROOT SpineBase
{
  OFFSET 0.000000 0.000000 0.000000
  CHANNELS 6 Xposition Yposition Zposition Zrotation Xrotation Yrotation
  JOINT SpineMid
  {
    OFFSET 0.000000 31.753809 0.000000
    CHANNELS 3 Zrotation Xrotation Yrotation
    JOINT SpineShoulder
    {
      OFFSET 0.285371 23.578701 -0.761301
      CHANNELS 3 Zrotation Xrotation Yrotation
      JOINT Neck
      {
        OFFSET 0.217011 7.800233 -0.565869
        CHANNELS 3 Zrotation Xrotation Yrotation
        JOINT Head
        {
          OFFSET 4.131737 12.868868 4.263227
          CHANNELS 3 Zrotation Xrotation Yrotation
          End Site
          {
            OFFSET 0 0 0
          }
        }
      }
      JOINT ShoulderLeft
      {
        OFFSET -7.337269 -2.745954 -13.565711
        CHANNELS 3 Zrotation Xrotation Yrotation
        JOINT ElbowLeft
        {
          OFFSET -6.298360 -26.595510 -10.817311
          CHANNELS 3 Zrotation Xrotation Yrotation
          JOINT WristLeft
          {
            OFFSET 1.768549 -24.029128 -6.571801
            CHANNELS 3 Zrotation Xrotation Yrotation
            JOINT HandLeft
            {
              OFFSET 0.843864 -5.675085 -1.997922
              CHANNELS 3 Zrotation Xrotation Yrotation
              JOINT HandTipLeft
              {
                OFFSET 2.368939 -8.439850 -2.157798
                CHANNELS 3 Zrotation Xrotation Yrotation
                End Site
                {
                  OFFSET 0 0 0
                }
              }
              JOINT ThumbLeft
              {
                OFFSET 2.451674 0.983684 5.917257
                CHANNELS 3 Zrotation Xrotation Yrotation
                End Site
                {
                  OFFSET 0 0 0
                }
              }
            }
          }
        }
      }
      JOINT ShoulderRight
      {
        OFFSET 8.426378 -5.376917 14.869489
        CHANNELS 3 Zrotation Xrotation Yrotation
        JOINT ElbowRight
        {
          OFFSET 0.859166 -32.044811 4.986034
          CHANNELS 3 Zrotation Xrotation Yrotation
          JOINT WristRight
          {
            OFFSET 3.397551 -23.699959 0.599213
            CHANNELS 3 Zrotation Xrotation Yrotation
            JOINT HandRight
            {
              OFFSET 0.784878 -3.361196 -5.266075
              CHANNELS 3 Zrotation Xrotation Yrotation
              JOINT HandTipRight
              {
                OFFSET 3.927688 -4.580097 -4.526268
                CHANNELS 3 Zrotation Xrotation Yrotation
                End Site
                {
                  OFFSET 0 0 0
                }
              }
              JOINT ThumbRight
              {
                OFFSET -0.287221 2.964408 -6.143654
                CHANNELS 3 Zrotation Xrotation Yrotation
                End Site
                {
                  OFFSET 0 0 0
                }
              }
            }
          }
        }
      }
    }
  }
  JOINT HipLeft
  {
    OFFSET -2.271294 2.428849 -8.493921
    CHANNELS 3 Zrotation Xrotation Yrotation
    JOINT KneeLeft
    {
      OFFSET -4.489670 -33.367270 -3.300981
      CHANNELS 3 Zrotation Xrotation Yrotation
      JOINT AnkleLeft
      {
        OFFSET -9.985739 -35.695480 3.573873
        CHANNELS 3 Zrotation Xrotation Yrotation
        JOINT FootLeft
        {
          OFFSET 3.783558 -6.814266 -3.632061
          CHANNELS 3 Zrotation Xrotation Yrotation
          End Site
          {
            OFFSET 0 0 0
          }
        }
      }
    }
  }
  JOINT HipRight
  {
    OFFSET 4.872259 -0.413804 1.889744
    CHANNELS 3 Zrotation Xrotation Yrotation
    JOINT KneeRight
    {
      OFFSET 11.048588 -36.049945 8.297231
      CHANNELS 3 Zrotation Xrotation Yrotation
      JOINT AnkleRight
      {
        OFFSET -4.131857 -36.727858 2.660796
        CHANNELS 3 Zrotation Xrotation Yrotation
        JOINT FootRight
        {
          OFFSET 7.204564 -2.786050 -5.882312
          CHANNELS 3 Zrotation Xrotation Yrotation
          End Site
          {
            OFFSET 0 0 0
          }
        }
      }
    }
  }
}
MOTION
Frames: 13
Frame Time: 0.033333
-114.843961 75.977658 283.389182 -0.000000 0.000000 -55.473559 0.000000 0.000000 55.473559 -0.000000 0.000000 0.000000 -0.000000 0.000000 0.000000 0.000000 0.000000 0.000000 -0.000000 0.000000 0.000000 -0.000000 0.000000 0.000000 -0.000000 0.000000 0.000000 -0.000000 0.000000 0.000000 0.000000 0.000000 0.000000 0.000000 0.000000 0.000000 -0.000000 0.000000 0.000000 -0.000000 0.000000 0.000000 -0.000000 0.000000 0.000000 -0.000000 0.000000 0.000000 0.000000 0.000000 0.000000 0.000000 0.000000 0.000000 0.000000 0.000000 55.473559 -0.000000 0.000000 0.000000 -0.000000 0.000000 0.000000 0.000000 0.000000 0.000000 0.000000 0.000000 55.473559 -0.000000 0.000000 0.000000 -0.000000 0.000000 0.000000 0.000000 0.000000 0.000000
-115.182709 76.235621 282.503449 0.026253 0.194499 -55.334576 0.145041 -0.132220 55.334699 -0.000000 0.000000 0.000000 0.998963 -1.148763 0.048202 0.000000 0.000000 0.000000 -0.000000 0.000000 0.000000 -0.000000 0.000000 0.000000 2.453106 -1.721037 -1.085082 -0.334782 1.835991 0.578585 0.000000 0.000000 0.000000 0.000000 0.000000 0.000000 -0.125685 -0.899070 -0.044595 -1.683986 2.837234 0.334768 -1.566090 -6.946486 3.907686 -3.972709 -2.640581 -4.169343 0.000000 0.000000 0.000000 0.000000 0.000000 0.000000 1.050548 -0.986006 55.527771 0.819798 0.736614 0.003592 -5.338148 -3.933257 -0.307949 0.000000 0.000000 0.000000 -5.590668 -1.882112 55.292105 10.068087 -6.069518 1.209177 -5.304977 2.436371 -0.543842 0.000000 0.000000 0.000000
-115.466280 76.470157 281.722207 0.071339 0.341586 -55.232858 0.239925 -0.253389 55.233176 -0.000000 0.000000 0.000000 1.918958 -2.171607 0.099062 0.000000 0.000000 0.000000 0.556753 1.155096 -0.504134 -0.546681 -1.159896 0.492988 4.189404 -3.865972 -1.921363 -0.622842 3.869135 1.027092 0.000000 0.000000 0.000000 0.000000 0.000000 0.000000 -0.209025 -1.679455 -0.080439 -3.122130 5.218229 0.701940 -4.605411 -17.647486 8.974370 -7.438544 -1.076932 -9.647247 0.000000 0.000000 0.000000 0.000000 0.000000 0.000000 1.696307 -1.728934 55.570774 1.631171 0.933861 0.080103 -8.949301 -6.192310 -0.783770 0.000000 0.000000 0.000000 -10.329735 -3.478876 54.982023 18.994686 -11.016956 3.260847 -9.353284 5.205180 -0.639598 0.000000 0.000000 0.000000
-115.694674 76.681266 281.045453 0.135384 0.440807 -55.168436 0.284506 -0.362901 55.168816 -0.000000 0.000000 0.000000 2.756815 -3.065023 0.147053 0.000000 0.000000 0.000000 0.748156 1.445015 -0.653618 -0.731861 -1.453335 0.634901 5.293913 -6.459125 -2.560436 -0.904533 6.145878 1.397945 0.000000 0.000000 0.000000 0.000000 0.000000 0.000000 -0.248975 -2.337531 -0.106169 -4.306951 7.139413 1.054250 -8.909357 -34.483004 14.596461 -7.939593 7.918487 -15.197700 0.000000 0.000000 0.000000 0.000000 0.000000 0.000000 1.983634 -2.263407 55.600450 2.423234 0.657725 0.234338 -10.714359 -6.749035 -1.204490 0.000000 0.000000 0.000000 -14.112392 -4.768238 54.626805 26.493467 -14.680589 5.605283 -12.871662 7.349995 -0.608095 0.000000 0.000000 0.000000
-115.867891 76.868947 280.473189 0.218494 0.491759 -55.141196 0.278640 -0.460355 55.141378 -0.000000 0.000000 0.000000 3.509870 -3.826551 0.187102 0.000000 0.000000 0.000000 0.873438 1.526612 -0.725823 -0.404395 -2.195615 0.547551 5.383505 -8.880137 -2.945536 -1.192082 8.735156 1.737140 0.000000 0.000000 0.000000 0.000000 0.000000 0.000000 -0.244790 -2.870507 -0.120736 -5.231112 8.603486 1.352894 -13.521449 -56.275984 17.888940 -4.779387 23.164578 -18.362616 0.000000 0.000000 0.000000 0.000000 0.000000 0.000000 1.939725 -2.612058 55.616177 3.187477 -0.043662 0.469802 -10.549402 -5.613418 -1.518000 0.000000 0.000000 0.000000 -16.906382 -5.758788 54.295660 32.291121 -17.112617 7.739920 -15.442926 9.079324 -0.439009 0.000000 0.000000 0.000000
-115.985930 77.033202 280.005415 0.320756 0.494083 -55.150874 0.222189 -0.545558 55.150549 -0.000000 0.000000 0.000000 4.175931 -4.454558 0.214662 0.000000 0.000000 0.000000 0.927761 1.388449 -0.715269 -0.285479 -2.487537 0.465713 5.154007 -12.128631 -3.299469 -1.474499 11.726104 2.087016 0.000000 0.000000 0.000000 0.000000 0.000000 0.000000 -0.196038 -3.276359 -0.123433 -5.888149 9.615704 1.567996 -21.305975 -75.344925 11.346443 -2.796273 37.206473 -15.432976 0.000000 0.000000 0.000000 0.000000 0.000000 0.000000 1.576618 -2.788372 55.617889 3.918871 -1.135641 0.788652 -8.355376 -2.759674 -1.851887 0.000000 0.000000 0.000000 -18.719005 -6.471866 54.038117 36.181802 -18.466880 9.287694 -17.003847 10.357841 -0.195931 0.000000 0.000000 0.000000
-116.019141 77.183702 279.632136 0.455945 0.441634 -55.172394 0.102125 -0.626493 55.171196 -0.000000 0.000000 0.000000 5.009393 -5.149493 0.225794 0.000000 0.000000 0.000000 0.768449 1.106528 -0.580673 0.080507 -2.687967 0.251440 3.714819 -17.455022 -3.647915 -1.451610 16.964682 2.587325 0.000000 0.000000 0.000000 0.000000 0.000000 0.000000 -0.062256 -3.424049 -0.102901 -6.455361 9.629298 1.583694 -26.538690 -77.446161 -4.144240 -10.561643 36.955756 -2.004940 0.000000 0.000000 0.000000 0.000000 0.000000 0.000000 0.326718 -2.556147 55.494370 4.876266 -3.748086 1.493995 -4.084698 2.285198 -2.775141 0.000000 0.000000 0.000000 -19.408759 -7.023483 53.793966 37.689866 -18.784632 9.880757 -16.503486 11.994016 0.439988 0.000000 0.000000 0.000000
-115.992707 77.291647 279.462670 0.600716 0.294299 -55.266457 -0.100421 -0.661350 55.264335 -0.000000 0.000000 0.000000 5.596086 -5.642241 0.241338 0.000000 0.000000 0.000000 0.458484 0.609061 -0.332754 0.499009 -2.773623 -0.062703 1.833782 -24.156486 -4.292687 -1.247101 23.297738 3.130520 0.000000 0.000000 0.000000 0.000000 0.000000 0.000000 -0.114504 -3.805126 -0.123046 -5.796133 9.954153 1.572821 -12.652756 -63.641718 -3.858017 -17.774264 22.693607 8.285381 0.000000 0.000000 0.000000 0.000000 0.000000 0.000000 -1.053807 -2.265417 55.441353 5.634992 -5.911046 2.062534 2.827836 8.428283 -4.553899 0.000000 0.000000 0.000000 -18.365079 -7.052546 53.824357 35.462856 -17.551227 8.875801 -14.008928 12.912327 1.190296 0.000000 0.000000 0.000000
-115.921623 77.380009 279.347046 0.797918 0.108795 -55.388657 0.216565 -0.052266 55.419070 0.040763 -0.101312 0.043463 4.957758 -5.581232 0.116774 0.000000 0.000000 0.000000 -0.918476 0.201579 -0.070618 1.275752 -2.930513 -0.535326 -0.769998 -28.853278 -4.722639 -1.060995 27.764664 3.632794 0.000000 0.000000 0.000000 0.000000 0.000000 0.000000 -0.803032 -3.723570 -0.153184 -5.615008 9.809931 1.467044 -14.644415 -66.616013 -18.043319 -23.069593 22.143765 23.722744 0.000000 0.000000 0.000000 0.000000 0.000000 0.000000 -2.513226 -2.071086 55.429425 6.430124 -7.953758 2.611234 14.433087 17.689354 -8.370734 0.000000 0.000000 0.000000 -16.953912 -6.838238 54.002391 32.445068 -15.629027 7.535524 -13.600127 10.676797 0.783935 0.000000 0.000000 0.000000
-115.896600 77.467475 279.163458 0.948783 0.053045 -55.469470 0.299362 -0.059574 55.508847 0.073428 -0.143142 0.057225 4.741441 -5.268804 0.021245 0.000000 0.000000 0.000000 -0.477136 -1.603624 0.115253 1.036792 -1.782624 -0.939533 -3.606629 -31.309278 -4.825955 -0.230141 28.295821 3.072655 0.000000 0.000000 0.000000 0.000000 0.000000 0.000000 -0.701037 -3.232814 -0.105535 -5.660982 8.902391 1.248573 -14.180848 -66.351329 -26.943644 -26.874299 17.680334 34.204197 0.000000 0.000000 0.000000 0.000000 0.000000 0.000000 -3.417529 -1.980035 55.418775 6.998201 -9.394408 3.033603 21.665635 22.875535 -11.682942 0.000000 0.000000 0.000000 -16.238957 -6.836652 54.068460 31.062188 -14.701180 6.961485 -12.966284 10.305357 1.060365 0.000000 0.000000 0.000000
-115.870002 77.509307 279.006980 1.092578 0.007113 -55.500894 0.366744 -0.058072 55.548630 0.094472 -0.177490 0.069193 4.180645 -4.851467 -0.010613 0.000000 0.000000 0.000000 -0.889333 -2.377478 0.402643 1.183080 -1.933386 -1.320982 -6.594109 -29.776441 -4.137940 0.825819 25.906952 2.221215 0.000000 0.000000 0.000000 0.000000 0.000000 0.000000 -0.390064 -2.495959 -0.020465 -6.751923 7.206519 0.936623 -11.291386 -65.041586 -37.831910 -30.221368 10.223201 46.804063 0.000000 0.000000 0.000000 0.000000 0.000000 0.000000 -3.983868 -1.864265 55.381643 7.145228 -10.293418 3.286041 24.924448 24.921947 -13.415865 0.000000 0.000000 0.000000 -15.872772 -6.783532 54.126710 30.089598 -14.275081 6.609922 -12.508443 10.172322 1.356014 0.000000 0.000000 0.000000
-115.829235 77.574118 278.759305 1.260101 0.105361 -55.208708 0.424700 -0.096971 55.262062 0.115040 -0.218007 0.079028 3.762445 -4.969645 0.092673 0.000000 0.000000 0.000000 -1.248496 -3.299269 0.683485 1.284660 -1.355007 -1.647415 -9.204465 -29.187197 -3.606983 2.679311 24.611876 0.903412 0.000000 0.000000 0.000000 0.000000 0.000000 0.000000 0.046029 -1.866971 0.082096 -6.534981 6.025295 0.614032 -11.872242 -64.641184 -39.166227 -30.762558 9.465608 49.283732 0.000000 0.000000 0.000000 0.000000 0.000000 0.000000 -3.868467 -1.786188 55.055232 6.554556 -10.574401 3.328293 24.134587 24.556544 -13.025899 0.000000 0.000000 0.000000 -15.833633 -6.947842 53.754688 29.672555 -14.426019 6.545351 -12.126680 10.545989 1.760698 0.000000 0.000000 0.000000
-115.764528 77.619339 278.564472 1.435525 0.210346 -54.115367 0.462832 -0.143524 54.173722 0.134560 -0.260251 0.088597 3.557514 -5.525408 0.293878 0.000000 0.000000 0.000000 -1.724989 -4.069907 0.968226 1.938968 -0.770034 -2.105174 -4.207538 -25.285171 -3.477080 -3.010042 18.942935 3.216924 0.000000 0.000000 0.000000 0.000000 0.000000 0.000000 0.521878 -1.517892 0.182998 -6.071084 5.253787 0.353730 -10.432002 -62.109677 -31.133188 -30.039686 11.669594 45.879663 0.000000 0.000000 0.000000 0.000000 0.000000 0.000000 -3.930760 -2.369234 54.007707 7.291207 -10.739560 3.452527 20.940553 23.797781 -11.838328 0.000000 0.000000 0.000000 -16.463192 -7.100094 52.520461 30.132607 -15.325509 6.873543 -12.036902 11.492011 2.335384 0.000000 0.000000 0.000000
